<svg class="main-svg" xmlns="http://www.w3.org/2000/svg" xmlns:xlink="http://www.w3.org/1999/xlink" width="1600" height="1400" style="" viewBox="0 0 800 700"><rect x="0" y="0" width="800" height="700" style="fill: rgb(255, 255, 255); fill-opacity: 1;"/><defs id="defs-681953"><g class="clips"><clipPath id="clip681953xyplot" class="plotclip"><rect width="511" height="520"/></clipPath><clipPath class="axesclip" id="clip681953x"><rect x="209" y="0" width="511" height="700"/></clipPath><clipPath class="axesclip" id="clip681953y"><rect x="0" y="100" width="800" height="520"/></clipPath><clipPath class="axesclip" id="clip681953xy"><rect x="209" y="100" width="511" height="520"/></clipPath></g><g class="gradients"/><g class="patterns"/></defs><g class="bglayer"><rect class="bg" x="209" y="100" width="511" height="520" style="fill: rgb(229, 236, 246); fill-opacity: 1; stroke-width: 0;"/></g><g class="layer-below"><g class="imagelayer"/><g class="shapelayer"/></g><g class="cartesianlayer"><g class="subplot xy"><g class="layer-subplot"><g class="shapelayer"/><g class="imagelayer"/></g><g class="gridlayer"><g class="x"><path class="xgrid crisp" transform="translate(243.01,0)" d="M0,100v520" style="stroke: rgb(255, 255, 255); stroke-opacity: 1; stroke-width: 1px;"/><path class="xgrid crisp" transform="translate(337.26,0)" d="M0,100v520" style="stroke: rgb(255, 255, 255); stroke-opacity: 1; stroke-width: 1px;"/><path class="xgrid crisp" transform="translate(431.51,0)" d="M0,100v520" style="stroke: rgb(255, 255, 255); stroke-opacity: 1; stroke-width: 1px;"/><path class="xgrid crisp" transform="translate(525.76,0)" d="M0,100v520" style="stroke: rgb(255, 255, 255); stroke-opacity: 1; stroke-width: 1px;"/><path class="xgrid crisp" transform="translate(620.01,0)" d="M0,100v520" style="stroke: rgb(255, 255, 255); stroke-opacity: 1; stroke-width: 1px;"/><path class="xgrid crisp" transform="translate(714.26,0)" d="M0,100v520" style="stroke: rgb(255, 255, 255); stroke-opacity: 1; stroke-width: 1px;"/></g><g class="y"><path class="ygrid crisp" transform="translate(0,590.25)" d="M209,0h511" style="stroke: rgb(255, 255, 255); stroke-opacity: 1; stroke-width: 1px;"/><path class="ygrid crisp" transform="translate(0,566.01)" d="M209,0h511" style="stroke: rgb(255, 255, 255); stroke-opacity: 1; stroke-width: 1px;"/><path class="ygrid crisp" transform="translate(0,541.78)" d="M209,0h511" style="stroke: rgb(255, 255, 255); stroke-opacity: 1; stroke-width: 1px;"/><path class="ygrid crisp" transform="translate(0,517.54)" d="M209,0h511" style="stroke: rgb(255, 255, 255); stroke-opacity: 1; stroke-width: 1px;"/><path class="ygrid crisp" transform="translate(0,493.3)" d="M209,0h511" style="stroke: rgb(255, 255, 255); stroke-opacity: 1; stroke-width: 1px;"/><path class="ygrid crisp" transform="translate(0,469.07)" d="M209,0h511" style="stroke: rgb(255, 255, 255); stroke-opacity: 1; stroke-width: 1px;"/><path class="ygrid crisp" transform="translate(0,444.83)" d="M209,0h511" style="stroke: rgb(255, 255, 255); stroke-opacity: 1; stroke-width: 1px;"/><path class="ygrid crisp" transform="translate(0,420.59)" d="M209,0h511" style="stroke: rgb(255, 255, 255); stroke-opacity: 1; stroke-width: 1px;"/><path class="ygrid crisp" transform="translate(0,396.36)" d="M209,0h511" style="stroke: rgb(255, 255, 255); stroke-opacity: 1; stroke-width: 1px;"/><path class="ygrid crisp" transform="translate(0,372.12)" d="M209,0h511" style="stroke: rgb(255, 255, 255); stroke-opacity: 1; stroke-width: 1px;"/><path class="ygrid crisp" transform="translate(0,347.88)" d="M209,0h511" style="stroke: rgb(255, 255, 255); stroke-opacity: 1; stroke-width: 1px;"/><path class="ygrid crisp" transform="translate(0,323.64)" d="M209,0h511" style="stroke: rgb(255, 255, 255); stroke-opacity: 1; stroke-width: 1px;"/><path class="ygrid crisp" transform="translate(0,299.40999999999997)" d="M209,0h511" style="stroke: rgb(255, 255, 255); stroke-opacity: 1; stroke-width: 1px;"/><path class="ygrid crisp" transform="translate(0,275.16999999999996)" d="M209,0h511" style="stroke: rgb(255, 255, 255); stroke-opacity: 1; stroke-width: 1px;"/><path class="ygrid crisp" transform="translate(0,250.93)" d="M209,0h511" style="stroke: rgb(255, 255, 255); stroke-opacity: 1; stroke-width: 1px;"/><path class="ygrid crisp" transform="translate(0,226.7)" d="M209,0h511" style="stroke: rgb(255, 255, 255); stroke-opacity: 1; stroke-width: 1px;"/><path class="ygrid crisp" transform="translate(0,202.45999999999998)" d="M209,0h511" style="stroke: rgb(255, 255, 255); stroke-opacity: 1; stroke-width: 1px;"/><path class="ygrid crisp" transform="translate(0,178.22)" d="M209,0h511" style="stroke: rgb(255, 255, 255); stroke-opacity: 1; stroke-width: 1px;"/><path class="ygrid crisp" transform="translate(0,153.99)" d="M209,0h511" style="stroke: rgb(255, 255, 255); stroke-opacity: 1; stroke-width: 1px;"/><path class="ygrid crisp" transform="translate(0,129.75)" d="M209,0h511" style="stroke: rgb(255, 255, 255); stroke-opacity: 1; stroke-width: 1px;"/></g></g><g class="zerolinelayer"/><path class="xlines-below"/><path class="ylines-below"/><g class="overlines-below"/><g class="xaxislayer-below"/><g class="yaxislayer-below"/><g class="overaxes-below"/><g class="plot" transform="translate(209,100)" clip-path="url(#clip681953xyplot)"><g class="scatterlayer mlayer"><g class="trace scatter trace0474f3" style="stroke-miterlimit: 2; opacity: 1;"><g class="fills"/><g class="errorbars"/><g class="lines"/><g class="points"><path class="point" transform="translate(29.3,490.25)" d="M3,0A3,3 0 1,1 0,-3A3,3 0 0,1 3,0Z" style="opacity: 1; stroke-width: 0px; fill: rgb(8, 81, 156); fill-opacity: 1;"/><path class="point" transform="translate(34.01,466.01)" d="M3,0A3,3 0 1,1 0,-3A3,3 0 0,1 3,0Z" style="opacity: 1; stroke-width: 0px; fill: rgb(8, 81, 156); fill-opacity: 1;"/><path class="point" transform="translate(34.01,441.78)" d="M3,0A3,3 0 1,1 0,-3A3,3 0 0,1 3,0Z" style="opacity: 1; stroke-width: 0px; fill: rgb(8, 81, 156); fill-opacity: 1;"/><path class="point" transform="translate(56.63,417.54)" d="M3,0A3,3 0 1,1 0,-3A3,3 0 0,1 3,0Z" style="opacity: 1; stroke-width: 0px; fill: rgb(8, 81, 156); fill-opacity: 1;"/><path class="point" transform="translate(81.14,393.3)" d="M3,0A3,3 0 1,1 0,-3A3,3 0 0,1 3,0Z" style="opacity: 1; stroke-width: 0px; fill: rgb(8, 81, 156); fill-opacity: 1;"/><path class="point" transform="translate(90.56,369.07)" d="M3,0A3,3 0 1,1 0,-3A3,3 0 0,1 3,0Z" style="opacity: 1; stroke-width: 0px; fill: rgb(8, 81, 156); fill-opacity: 1;"/><path class="point" transform="translate(97.63,344.83)" d="M3,0A3,3 0 1,1 0,-3A3,3 0 0,1 3,0Z" style="opacity: 1; stroke-width: 0px; fill: rgb(8, 81, 156); fill-opacity: 1;"/><path class="point" transform="translate(128.26,320.59)" d="M3,0A3,3 0 1,1 0,-3A3,3 0 0,1 3,0Z" style="opacity: 1; stroke-width: 0px; fill: rgb(8, 81, 156); fill-opacity: 1;"/><path class="point" transform="translate(128.26,296.36)" d="M3,0A3,3 0 1,1 0,-3A3,3 0 0,1 3,0Z" style="opacity: 1; stroke-width: 0px; fill: rgb(8, 81, 156); fill-opacity: 1;"/><path class="point" transform="translate(128.26,272.12)" d="M3,0A3,3 0 1,1 0,-3A3,3 0 0,1 3,0Z" style="opacity: 1; stroke-width: 0px; fill: rgb(8, 81, 156); fill-opacity: 1;"/><path class="point" transform="translate(267.02,247.88)" d="M3,0A3,3 0 1,1 0,-3A3,3 0 0,1 3,0Z" style="opacity: 1; stroke-width: 0px; fill: rgb(8, 81, 156); fill-opacity: 1;"/><path class="point" transform="translate(269.64,223.64)" d="M3,0A3,3 0 1,1 0,-3A3,3 0 0,1 3,0Z" style="opacity: 1; stroke-width: 0px; fill: rgb(8, 81, 156); fill-opacity: 1;"/><path class="point" transform="translate(269.64,199.41)" d="M3,0A3,3 0 1,1 0,-3A3,3 0 0,1 3,0Z" style="opacity: 1; stroke-width: 0px; fill: rgb(8, 81, 156); fill-opacity: 1;"/><path class="point" transform="translate(293.2,175.17)" d="M3,0A3,3 0 1,1 0,-3A3,3 0 0,1 3,0Z" style="opacity: 1; stroke-width: 0px; fill: rgb(8, 81, 156); fill-opacity: 1;"/><path class="point" transform="translate(293.2,150.93)" d="M3,0A3,3 0 1,1 0,-3A3,3 0 0,1 3,0Z" style="opacity: 1; stroke-width: 0px; fill: rgb(8, 81, 156); fill-opacity: 1;"/><path class="point" transform="translate(363.89,126.7)" d="M3,0A3,3 0 1,1 0,-3A3,3 0 0,1 3,0Z" style="opacity: 1; stroke-width: 0px; fill: rgb(8, 81, 156); fill-opacity: 1;"/><path class="point" transform="translate(363.89,102.46)" d="M3,0A3,3 0 1,1 0,-3A3,3 0 0,1 3,0Z" style="opacity: 1; stroke-width: 0px; fill: rgb(8, 81, 156); fill-opacity: 1;"/><path class="point" transform="translate(363.89,78.22)" d="M3,0A3,3 0 1,1 0,-3A3,3 0 0,1 3,0Z" style="opacity: 1; stroke-width: 0px; fill: rgb(8, 81, 156); fill-opacity: 1;"/><path class="point" transform="translate(363.89,53.99)" d="M3,0A3,3 0 1,1 0,-3A3,3 0 0,1 3,0Z" style="opacity: 1; stroke-width: 0px; fill: rgb(8, 81, 156); fill-opacity: 1;"/><path class="point" transform="translate(481.7,29.75)" d="M3,0A3,3 0 1,1 0,-3A3,3 0 0,1 3,0Z" style="opacity: 1; stroke-width: 0px; fill: rgb(8, 81, 156); fill-opacity: 1;"/></g><g class="text"/></g></g></g><g class="overplot"/><path class="xlines-above crisp" d="M0,0" style="fill: none;"/><path class="ylines-above crisp" d="M0,0" style="fill: none;"/><g class="overlines-above"/><g class="xaxislayer-above"><g class="xtick"><text text-anchor="middle" x="0" y="635" transform="translate(243.01,0)" style="font-family: 'Open Sans', verdana, arial, sans-serif; font-size: 14px; fill: rgb(105, 105, 105); fill-opacity: 1; white-space: pre; opacity: 1;">$40k</text></g><g class="xtick"><text text-anchor="middle" x="0" y="635" style="font-family: 'Open Sans', verdana, arial, sans-serif; font-size: 14px; fill: rgb(105, 105, 105); fill-opacity: 1; white-space: pre; opacity: 1;" transform="translate(337.26,0)">$50k</text></g><g class="xtick"><text text-anchor="middle" x="0" y="635" style="font-family: 'Open Sans', verdana, arial, sans-serif; font-size: 14px; fill: rgb(105, 105, 105); fill-opacity: 1; white-space: pre; opacity: 1;" transform="translate(431.51,0)">$60k</text></g><g class="xtick"><text text-anchor="middle" x="0" y="635" style="font-family: 'Open Sans', verdana, arial, sans-serif; font-size: 14px; fill: rgb(105, 105, 105); fill-opacity: 1; white-space: pre; opacity: 1;" transform="translate(525.76,0)">$70k</text></g><g class="xtick"><text text-anchor="middle" x="0" y="635" style="font-family: 'Open Sans', verdana, arial, sans-serif; font-size: 14px; fill: rgb(105, 105, 105); fill-opacity: 1; white-space: pre; opacity: 1;" transform="translate(620.01,0)">$80k</text></g><g class="xtick"><text text-anchor="middle" x="0" y="635" style="font-family: 'Open Sans', verdana, arial, sans-serif; font-size: 14px; fill: rgb(105, 105, 105); fill-opacity: 1; white-space: pre; opacity: 1;" transform="translate(714.26,0)">$90k</text></g></g><g class="yaxislayer-above"><g class="ytick"><text text-anchor="end" x="208" y="4.8999999999999995" transform="translate(0,590.25)" style="font-family: 'Open Sans', verdana, arial, sans-serif; font-size: 14px; fill: rgb(105, 105, 105); fill-opacity: 1; white-space: pre; opacity: 1;">Desarrollo En Competen...</text></g><g class="ytick"><text text-anchor="end" x="208" y="4.8999999999999995" transform="translate(0,566.01)" style="font-family: 'Open Sans', verdana, arial, sans-serif; font-size: 14px; fill: rgb(105, 105, 105); fill-opacity: 1; white-space: pre; opacity: 1;">Thtec Talento Humano E...</text></g><g class="ytick"><text text-anchor="end" x="208" y="4.8999999999999995" transform="translate(0,541.78)" style="font-family: 'Open Sans', verdana, arial, sans-serif; font-size: 14px; fill: rgb(105, 105, 105); fill-opacity: 1; white-space: pre; opacity: 1;">Infotec Centro De Inve...</text></g><g class="ytick"><text text-anchor="end" x="208" y="4.8999999999999995" transform="translate(0,517.54)" style="font-family: 'Open Sans', verdana, arial, sans-serif; font-size: 14px; fill: rgb(105, 105, 105); fill-opacity: 1; white-space: pre; opacity: 1;">Kelly Services</text></g><g class="ytick"><text text-anchor="end" x="208" y="4.8999999999999995" transform="translate(0,493.3)" style="font-family: 'Open Sans', verdana, arial, sans-serif; font-size: 14px; fill: rgb(105, 105, 105); fill-opacity: 1; white-space: pre; opacity: 1;">Ecosistemex S. De R.L....</text></g><g class="ytick"><text text-anchor="end" x="208" y="4.8999999999999995" transform="translate(0,469.07)" style="font-family: 'Open Sans', verdana, arial, sans-serif; font-size: 14px; fill: rgb(105, 105, 105); fill-opacity: 1; white-space: pre; opacity: 1;">Cognodata México, S. D...</text></g><g class="ytick"><text text-anchor="end" x="208" y="4.8999999999999995" transform="translate(0,444.83)" style="font-family: 'Open Sans', verdana, arial, sans-serif; font-size: 14px; fill: rgb(105, 105, 105); fill-opacity: 1; white-space: pre; opacity: 1;">Indra</text></g><g class="ytick"><text text-anchor="end" x="208" y="4.8999999999999995" transform="translate(0,420.59)" style="font-family: 'Open Sans', verdana, arial, sans-serif; font-size: 14px; fill: rgb(105, 105, 105); fill-opacity: 1; white-space: pre; opacity: 1;">Sistemes Integrats Cor...</text></g><g class="ytick"><text text-anchor="end" x="208" y="4.8999999999999995" transform="translate(0,396.36)" style="font-family: 'Open Sans', verdana, arial, sans-serif; font-size: 14px; fill: rgb(105, 105, 105); fill-opacity: 1; white-space: pre; opacity: 1;">Compartamos Servicios,...</text></g><g class="ytick"><text text-anchor="end" x="208" y="4.8999999999999995" transform="translate(0,372.12)" style="font-family: 'Open Sans', verdana, arial, sans-serif; font-size: 14px; fill: rgb(105, 105, 105); fill-opacity: 1; white-space: pre; opacity: 1;">Essilorluxottica Mexic...</text></g><g class="ytick"><text text-anchor="end" x="208" y="4.8999999999999995" transform="translate(0,347.88)" style="font-family: 'Open Sans', verdana, arial, sans-serif; font-size: 14px; fill: rgb(105, 105, 105); fill-opacity: 1; white-space: pre; opacity: 1;">Manpower, S.A. De C.V.</text></g><g class="ytick"><text text-anchor="end" x="208" y="4.8999999999999995" transform="translate(0,323.64)" style="font-family: 'Open Sans', verdana, arial, sans-serif; font-size: 14px; fill: rgb(105, 105, 105); fill-opacity: 1; white-space: pre; opacity: 1;">Grupo Altavista</text></g><g class="ytick"><text text-anchor="end" x="208" y="4.8999999999999995" transform="translate(0,299.40999999999997)" style="font-family: 'Open Sans', verdana, arial, sans-serif; font-size: 14px; fill: rgb(105, 105, 105); fill-opacity: 1; white-space: pre; opacity: 1;">Getecsa</text></g><g class="ytick"><text text-anchor="end" x="208" y="4.8999999999999995" transform="translate(0,275.16999999999996)" style="font-family: 'Open Sans', verdana, arial, sans-serif; font-size: 14px; fill: rgb(105, 105, 105); fill-opacity: 1; white-space: pre; opacity: 1;">Stefanini México, S.A....</text></g><g class="ytick"><text text-anchor="end" x="208" y="4.8999999999999995" transform="translate(0,250.93)" style="font-family: 'Open Sans', verdana, arial, sans-serif; font-size: 14px; fill: rgb(105, 105, 105); fill-opacity: 1; white-space: pre; opacity: 1;">Ait Vanguardia Tecnoló...</text></g><g class="ytick"><text text-anchor="end" x="208" y="4.8999999999999995" transform="translate(0,226.7)" style="font-family: 'Open Sans', verdana, arial, sans-serif; font-size: 14px; fill: rgb(105, 105, 105); fill-opacity: 1; white-space: pre; opacity: 1;">Zegovia Rh Sa De Cv</text></g><g class="ytick"><text text-anchor="end" x="208" y="4.8999999999999995" transform="translate(0,202.45999999999998)" style="font-family: 'Open Sans', verdana, arial, sans-serif; font-size: 14px; fill: rgb(105, 105, 105); fill-opacity: 1; white-space: pre; opacity: 1;">Zemsania México</text></g><g class="ytick"><text text-anchor="end" x="208" y="4.8999999999999995" transform="translate(0,178.22)" style="font-family: 'Open Sans', verdana, arial, sans-serif; font-size: 14px; fill: rgb(105, 105, 105); fill-opacity: 1; white-space: pre; opacity: 1;">Reclutamiento En Tecno...</text></g><g class="ytick"><text text-anchor="end" x="208" y="4.8999999999999995" transform="translate(0,153.99)" style="font-family: 'Open Sans', verdana, arial, sans-serif; font-size: 14px; fill: rgb(105, 105, 105); fill-opacity: 1; white-space: pre; opacity: 1;">Resources Connection M...</text></g><g class="ytick"><text text-anchor="end" x="208" y="4.8999999999999995" transform="translate(0,129.75)" style="font-family: 'Open Sans', verdana, arial, sans-serif; font-size: 14px; fill: rgb(105, 105, 105); fill-opacity: 1; white-space: pre; opacity: 1;">Especialistas En Talen...</text></g></g><g class="overaxes-above"/></g></g><g class="polarlayer"/><g class="smithlayer"/><g class="ternarylayer"/><g class="geolayer"/><g class="funnelarealayer"/><g class="pielayer"/><g class="iciclelayer"/><g class="treemaplayer"/><g class="sunburstlayer"/><g class="glimages"/><defs id="topdefs-681953"><g class="clips"/></defs><g class="layer-above"><g class="imagelayer"/><g class="shapelayer"><path data-index="0" fill-rule="evenodd" d="M238.3,590.25L238.3,590.25" clip-path="url(#clip681953xy)" style="opacity: 1; stroke: rgb(8, 81, 156); stroke-opacity: 1; fill: rgb(0, 0, 0); fill-opacity: 0; stroke-width: 2px;"/><path data-index="1" fill-rule="evenodd" d="M238.3,566.01L243.01,566.01" clip-path="url(#clip681953xy)" style="opacity: 1; stroke: rgb(8, 81, 156); stroke-opacity: 1; fill: rgb(0, 0, 0); fill-opacity: 0; stroke-width: 2px;"/><path data-index="2" fill-rule="evenodd" d="M238.3,541.78L243.01,541.78" clip-path="url(#clip681953xy)" style="opacity: 1; stroke: rgb(8, 81, 156); stroke-opacity: 1; fill: rgb(0, 0, 0); fill-opacity: 0; stroke-width: 2px;"/><path data-index="3" fill-rule="evenodd" d="M238.3,517.54L265.63,517.54" clip-path="url(#clip681953xy)" style="opacity: 1; stroke: rgb(8, 81, 156); stroke-opacity: 1; fill: rgb(0, 0, 0); fill-opacity: 0; stroke-width: 2px;"/><path data-index="4" fill-rule="evenodd" d="M238.3,493.3L290.14,493.3" clip-path="url(#clip681953xy)" style="opacity: 1; stroke: rgb(8, 81, 156); stroke-opacity: 1; fill: rgb(0, 0, 0); fill-opacity: 0; stroke-width: 2px;"/><path data-index="5" fill-rule="evenodd" d="M238.3,469.07L299.56,469.07" clip-path="url(#clip681953xy)" style="opacity: 1; stroke: rgb(8, 81, 156); stroke-opacity: 1; fill: rgb(0, 0, 0); fill-opacity: 0; stroke-width: 2px;"/><path data-index="6" fill-rule="evenodd" d="M238.3,444.83L306.63,444.83" clip-path="url(#clip681953xy)" style="opacity: 1; stroke: rgb(8, 81, 156); stroke-opacity: 1; fill: rgb(0, 0, 0); fill-opacity: 0; stroke-width: 2px;"/><path data-index="7" fill-rule="evenodd" d="M238.3,420.59L337.26,420.59" clip-path="url(#clip681953xy)" style="opacity: 1; stroke: rgb(8, 81, 156); stroke-opacity: 1; fill: rgb(0, 0, 0); fill-opacity: 0; stroke-width: 2px;"/><path data-index="8" fill-rule="evenodd" d="M238.3,396.36L337.26,396.36" clip-path="url(#clip681953xy)" style="opacity: 1; stroke: rgb(8, 81, 156); stroke-opacity: 1; fill: rgb(0, 0, 0); fill-opacity: 0; stroke-width: 2px;"/><path data-index="9" fill-rule="evenodd" d="M238.3,372.12L337.26,372.12" clip-path="url(#clip681953xy)" style="opacity: 1; stroke: rgb(8, 81, 156); stroke-opacity: 1; fill: rgb(0, 0, 0); fill-opacity: 0; stroke-width: 2px;"/><path data-index="10" fill-rule="evenodd" d="M238.3,347.88L476.02,347.88" clip-path="url(#clip681953xy)" style="opacity: 1; stroke: rgb(8, 81, 156); stroke-opacity: 1; fill: rgb(0, 0, 0); fill-opacity: 0; stroke-width: 2px;"/><path data-index="11" fill-rule="evenodd" d="M238.3,323.64L478.64,323.64" clip-path="url(#clip681953xy)" style="opacity: 1; stroke: rgb(8, 81, 156); stroke-opacity: 1; fill: rgb(0, 0, 0); fill-opacity: 0; stroke-width: 2px;"/><path data-index="12" fill-rule="evenodd" d="M238.3,299.40999999999997L478.64,299.40999999999997" clip-path="url(#clip681953xy)" style="opacity: 1; stroke: rgb(8, 81, 156); stroke-opacity: 1; fill: rgb(0, 0, 0); fill-opacity: 0; stroke-width: 2px;"/><path data-index="13" fill-rule="evenodd" d="M238.3,275.16999999999996L502.2,275.16999999999996" clip-path="url(#clip681953xy)" style="opacity: 1; stroke: rgb(8, 81, 156); stroke-opacity: 1; fill: rgb(0, 0, 0); fill-opacity: 0; stroke-width: 2px;"/><path data-index="14" fill-rule="evenodd" d="M238.3,250.93L502.2,250.93" clip-path="url(#clip681953xy)" style="opacity: 1; stroke: rgb(8, 81, 156); stroke-opacity: 1; fill: rgb(0, 0, 0); fill-opacity: 0; stroke-width: 2px;"/><path data-index="15" fill-rule="evenodd" d="M238.3,226.7L572.89,226.7" clip-path="url(#clip681953xy)" style="opacity: 1; stroke: rgb(8, 81, 156); stroke-opacity: 1; fill: rgb(0, 0, 0); fill-opacity: 0; stroke-width: 2px;"/><path data-index="16" fill-rule="evenodd" d="M238.3,202.45999999999998L572.89,202.45999999999998" clip-path="url(#clip681953xy)" style="opacity: 1; stroke: rgb(8, 81, 156); stroke-opacity: 1; fill: rgb(0, 0, 0); fill-opacity: 0; stroke-width: 2px;"/><path data-index="17" fill-rule="evenodd" d="M238.3,178.22L572.89,178.22" clip-path="url(#clip681953xy)" style="opacity: 1; stroke: rgb(8, 81, 156); stroke-opacity: 1; fill: rgb(0, 0, 0); fill-opacity: 0; stroke-width: 2px;"/><path data-index="18" fill-rule="evenodd" d="M238.3,153.99L572.89,153.99" clip-path="url(#clip681953xy)" style="opacity: 1; stroke: rgb(8, 81, 156); stroke-opacity: 1; fill: rgb(0, 0, 0); fill-opacity: 0; stroke-width: 2px;"/><path data-index="19" fill-rule="evenodd" d="M238.3,129.75L690.7,129.75" clip-path="url(#clip681953xy)" style="opacity: 1; stroke: rgb(8, 81, 156); stroke-opacity: 1; fill: rgb(0, 0, 0); fill-opacity: 0; stroke-width: 2px;"/></g></g><g class="infolayer"><g class="g-gtitle"><text class="gtitle" x="400" y="50" text-anchor="middle" dy="0em" style="font-family: 'Open Sans', verdana, arial, sans-serif; font-size: 20px; fill: rgb(105, 105, 105); opacity: 1; font-weight: normal; white-space: pre;">Top 20 Companies Paying The Highest Salaries</text></g><g class="g-xtitle"><text class="xtitle" x="464.5" y="664.9" text-anchor="middle" style="font-family: 'Open Sans', verdana, arial, sans-serif; font-size: 17px; fill: rgb(105, 105, 105); opacity: 1; font-weight: normal; white-space: pre;">Average Monthly Salary (MXN)</text></g><g class="g-ytitle" transform="translate(2.759765625,0)"><text class="ytitle" transform="rotate(-90,12.240624999999994,360)" x="12.240624999999994" y="360" text-anchor="middle" style="font-family: 'Open Sans', verdana, arial, sans-serif; font-size: 17px; fill: rgb(105, 105, 105); opacity: 1; font-weight: normal; white-space: pre;">Company</text></g></g></svg>